name Walk2.mot
datacolumns 19
datarows 15
range 1.64500000 1.71500000
endheader

                time	   L_ground_force_vx	   L_ground_force_vy	   L_ground_force_vz	   L_ground_force_px	   L_ground_force_py	   L_ground_force_pz	   R_ground_force_vx	   R_ground_force_vy	   R_ground_force_vz	   R_ground_force_px	   R_ground_force_py	   R_ground_force_pz	   L_ground_torque_x	   L_ground_torque_y	   L_ground_torque_z	   R_ground_torque_x	   R_ground_torque_y	   R_ground_torque_z	
          1.64500000	         31.53850702	        925.20301460	         84.23921945	         -0.28514154	          0.00000000	         -0.13009991	         -0.00787535	          0.25070618	          0.01118686	          0.00016246	          0.00000000	          0.00004836	          0.00000000	         -2.16281635	          0.00000000	          0.00000000	          0.00044393	          0.00000000	
          1.65000000	         34.25467518	        935.46408804	         85.46243472	         -0.28362356	          0.00000000	         -0.13039823	         -0.01579405	          0.36050388	          0.01620490	          0.00021617	          0.00000000	          0.00006366	          0.00000000	         -2.21717615	          0.00000000	          0.00000000	          0.00154991	          0.00000000	
          1.65500000	         37.21021200	        945.95214047	         86.64833568	         -0.28213900	          0.00000000	         -0.13067530	         -0.02619447	          0.48725994	          0.02203140	          0.00027327	          0.00000000	          0.00007965	          0.00000000	         -2.27213467	          0.00000000	          0.00000000	          0.00308340	          0.00000000	
          1.66000000	         40.43895395	        956.58199821	         87.80002162	         -0.28069057	          0.00000000	         -0.13093156	         -0.03918215	          0.62482792	          0.02840004	          0.00032861	          0.00000000	          0.00009478	          0.00000000	         -2.32485652	          0.00000000	          0.00000000	          0.00509442	          0.00000000	
          1.66500000	         43.96271684	        967.26521494	         88.92333708	         -0.27927865	          0.00000000	         -0.13116814	         -0.05460261	          0.76228983	          0.03482865	          0.00037437	          0.00000000	          0.00010667	          0.00000000	         -2.37294956	          0.00000000	          0.00000000	          0.00760209	          0.00000000	
          1.67000000	         47.79012725	        977.91348265	         90.02728510	         -0.27790141	          0.00000000	         -0.13138623	         -0.07191494	          0.88263338	          0.04055794	          0.00039957	          0.00000000	          0.00011207	          0.00000000	         -2.41432222	          0.00000000	          0.00000000	          0.01057494	          0.00000000	
          1.67500000	         51.91685946	        988.44041491	         91.12311513	         -0.27655550	          0.00000000	         -0.13158626	         -0.09004230	          0.96144121	          0.04449015	          0.00038958	          0.00000000	          0.00010665	          0.00000000	         -2.44712356	          0.00000000	          0.00000000	          0.01390656	          0.00000000	
          1.68000000	         56.32621973	        998.76511647	         92.22228304	         -0.27523621	          0.00000000	         -0.13176879	         -0.10720499	          0.96575983	          0.04513507	          0.00032596	          0.00000000	          0.00008506	          0.00000000	         -2.46979848	          0.00000000	          0.00000000	          0.01738676	          0.00000000	
          1.68500000	         60.98954807	       1008.81692096	         93.33464588	         -0.27393818	          0.00000000	         -0.13193536	         -0.12074676	          0.85338890	          0.04057432	          0.00018655	          0.00000000	          0.00004090	          0.00000000	         -2.48134664	          0.00000000	          0.00000000	          0.02066942	          0.00000000	
          1.69000000	         65.86914070	       1018.54030531	         94.46675090	         -0.27265683	          0.00000000	         -0.13208742	         -0.12697205	          0.57291313	          0.02845843	         -0.00005385	          0.00000000	         -0.00003300	          0.00000000	         -2.48101557	          0.00000000	          0.00000000	          0.02323922	          0.00000000	
          1.69500000	         70.92381088	       1027.89648625	         95.62234687	         -0.27138902	          0.00000000	         -0.13222580	         -0.12102043	          0.06488864	          0.00605543	         -0.00042209	          0.00000000	         -0.00014418	          0.00000000	         -2.46842993	          0.00000000	          0.00000000	          0.02438047	          0.00000000	
          1.70000000	         76.11322971	       1036.85795980	         96.80221062	         -0.27013318	          0.00000000	         -0.13235141	         -0.09681436	         -0.73531705	         -0.02962615	         -0.00094425	          0.00000000	         -0.00029977	          0.00000000	         -2.44386654	          0.00000000	          0.00000000	          0.02315331	          0.00000000	
          1.70500000	         81.40050922	       1045.40340454	         98.00442675	         -0.26888952	          0.00000000	         -0.13246495	         -0.04712800	         -1.89245631	         -0.08161356	         -0.00164204	          0.00000000	         -0.00050541	          0.00000000	         -2.40824304	          0.00000000	          0.00000000	          0.01838425	          0.00000000	
          1.71000000	         86.75463458	       1053.51360962	         99.22584493	         -0.26765991	          0.00000000	         -0.13256602	          0.03616412	         -3.46348280	         -0.15261641	         -0.00252766	          0.00000000	         -0.00076377	          0.00000000	         -2.36253439	          0.00000000	          0.00000000	          0.00868019	          0.00000000	
          1.71500000	         92.15365254	       1061.16506908	        100.46329471	         -0.26644763	          0.00000000	         -0.13265336	          0.16158812	         -5.48616495	         -0.24451494	         -0.00359695	          0.00000000	         -0.00107244	          0.00000000	         -2.30805897	          0.00000000	          0.00000000	         -0.00752265	          0.00000000	
